#!OML:ASF E:/inclinewalkrobotboard/Project1/Captureday1/Session1/subject1.ASF
:FULLY-SPECIFIED
:DEGREES
238
root 0 0 0 1.7202479101000494 -8.9538788842712 1.2456856369618161
lowerback 1.090077675731982 -1.434854309418868 -3.190192999634756
upperback -0.9108841434061149 -1.8138016449705998 2.326541146775884
thorax -1.3036836295569603 -0.8768782719386977 4.172184323628893
lowerneck -28.80770032236984 -2.1667120664678396 -7.444727329146784
upperneck 8.424952438712308 -1.0343837683848829 5.326767853030756
head 7.075958451915356 -0.13393131680253156 2.824772675794571
rclavicle -2.8180417825161934E-15 -8.675804028162462E-16
rhumerus -32.62312644367629 -5.425924273784103 -80.19699274986716
rradius 29.96124148006888
rwrist 18.739721669217474
rhand -17.51701952177311 9.765296876005426
rfingers 7.125019999999948
rthumb 8.73249786117962 -20.060523485028394
lclavicle -1.9889357805139558E-15 -6.767176744188457E-16
lhumerus -9.116952945646172 8.24510375345281 88.54472956898455
lradius 61.36781629671665
lwrist -5.163922648829665
lhand -33.7833375542713 17.615443572547345
lfingers 7.125020000000008
lthumb -6.969012856404427 47.24526558483
rfemur -29.39984660578019 0.1614295077331711 19.08877063760246
rtibia 55.442295163269954
rfoot -5.314050127884814 -9.091784195993647
rtoes -0.5721291681875149
lfemur 3.5127711796393712 -2.123771507300063 -30.31998118950355
ltibia 24.15759749348834
lfoot -18.10395663056502 -0.9944448587533565
ltoes 4.134166936227729
239
root 0 0 0 1.7994684491456103 -9.022079818464094 1.3170570792356773
lowerback 1.0394706583312696 -1.4862804917256773 -3.2248332712865593
upperback -0.8385870122827672 -1.889354544629882 2.350167814850772
thorax -1.1975774588958992 -0.9149143733254018 4.213797743780352
lowerneck -29.45817687832422 -2.232307576406269 -7.468790858843758
upperneck 7.598797463684489 -1.0933687319045302 5.443962222322989
head 6.872902771386474 -0.11903055895266818 2.8475252275434655
rclavicle -1.9857569087632494E-15 -1.305955963133689E-15
rhumerus -32.581170679900964 -5.309530463490545 -80.15811856715467
rradius 29.939097922259307
rwrist 18.639661389507335
rhand -17.555548207762016 9.847316135975458
rfingers 7.125019999999946
rthumb 8.694826793244482 -19.983619841101024
lclavicle -1.5366538591521074E-15 -8.858842610379725E-16
lhumerus -9.294186656131476 7.877335999049046 88.55078016411909
lradius 61.47976197789173
lwrist -5.005110173194849
lhand -33.69674868282575 17.731320953139516
lfingers 7.125020000000007
lthumb -6.884445116909617 47.36776985733843
rfemur -30.966266166370247 1.506938060114952 19.027090043038946
rtibia 44.01940423263804
rfoot -6.453309738558093 -11.001650003884343
rtoes -3.618183065539583
lfemur 5.5017878177921204 -2.3169407322843156 -30.365480577535934
ltibia 23.218902846977052
lfoot -18.12389686507472 -1.4563782535650902
ltoes 2.148933638241271
240
root 0 0 0 1.8818920822035692 -9.105090211341068 1.3936907773891174
lowerback 0.9878370130467002 -1.5448626733118023 -3.2570412332994403
upperback -0.7581181070441552 -1.9751355308597776 2.37613199319426
thorax -1.0826642394868373 -0.9583965427649861 4.255456196902223
lowerneck -30.180347825919334 -2.2981215030179927 -7.4843540205750205
upperneck 6.727740647146973 -1.1432204358686529 5.545275122578264
head 6.664255144718473 -0.10005249213765864 2.863739570043791
rclavicle -9.93315529725146E-16 -1.9569555577417383E-15
rhumerus -32.53550909714857 -5.152005630060487 -80.09922423715847
rradius 29.905569315442946
rwrist 18.523515259992255
rhand -17.603493730565816 9.944470532961393
rfingers 7.125019999999943
rthumb 8.64777051678387 -19.89477612019034
lclavicle -8.810737207639316E-16 -1.193971077110334E-15
lhumerus -9.767342553704244 7.419264639235906 88.69702912368906
lradius 61.46787287902801
lwrist -4.753357663264081
lhand -33.531851955688964 17.869109775763732
lfingers 7.1250200000000055
lthumb -6.723687134391103 47.516773390233446
rfemur -32.64258048419461 3.0248901083762787 18.260406606051408
rtibia 32.882587847152855
rfoot -6.511615068257533 -12.268337602400326
rtoes -6.113785964611241
lfemur 9.830670339580493 -2.8596400839295666 -30.290547864803873
ltibia 21.130403402770504
lfoot -17.100083335103772 -2.736461921248201
ltoes -1.9845330929579088
241
root 0 0 0 1.9911633569370144 -9.230054496376589 1.4983981008939167
lowerback 0.89937273044204 -1.6221682365023322 -3.306880145558207
upperback -0.6680144305100331 -2.088835325876581 2.4119935793381493
thorax -0.9356872707394192 -1.0157296345019327 4.31619066642125
lowerneck -31.103538406192026 -2.368213179788567 -7.512410156239759
upperneck 5.64499226226787 -1.1818053586565358 5.666932020401363
head 6.410210865190123 -0.06792537916285711 2.887235091121047
rclavicle -2.307746756311243E-16 -2.7306401518201894E-15
rhumerus -32.54239630850084 -4.9996055076367725 -80.01763691483423
rradius 29.860357927020342
rwrist 18.507008913713783
rhand -17.631297461882852 9.971152342335582
rfingers 7.125019999999943
rthumb 8.619759193170225 -19.881481816898663
lclavicle -4.0073506510252256E-16 -1.5022821739304892E-15
lhumerus -9.972197961235361 7.042347081405974 88.6622647486866
lradius 61.576040073927935
lwrist -4.582478665956023
lhand -33.429948938391064 17.983785290706535
lfingers 7.125020000000005
lthumb -6.62203076026399 47.64047328300912
rfemur -33.95042434134649 4.009060286728013 17.636589175770826
rtibia 26.36680521800656
rfoot -6.068448467308068 -12.64411850402729
rtoes -6.845499283895213
lfemur 15.813830278753025 -3.5679047163554323 -29.748940001328446
ltibia 20.60125192588702
lfoot -14.038651572348376 -5.394679113325392
ltoes -7.800599141386401
